<svg width="30" height="30" viewBox="0 0 30 30" fill="none" xmlns="http://www.w3.org/2000/svg">
<rect width="7.79221" height="30" rx="3.8961" fill="#655DC3"/>
<path opacity="0.8" d="M11.1039 3.8961C11.1039 1.74435 12.8482 0 15 0V0C17.1518 0 18.8961 1.74435 18.8961 3.8961V26.1039C18.8961 28.2557 17.1518 30 15 30V30C12.8482 30 11.1039 28.2557 11.1039 26.1039V3.8961Z" fill="#655DC3"/>
<path opacity="0.5" d="M22.2078 3.8961C22.2078 1.74435 23.9521 0 26.1039 0V0C28.2557 0 30 1.74435 30 3.8961V26.1039C30 28.2557 28.2557 30 26.1039 30V30C23.9521 30 22.2078 28.2557 22.2078 26.1039V3.8961Z" fill="#655DC3"/>
</svg>
